<?xml version="1.0" encoding="UTF-8" standalone="no" ?>
<!DOCTYPE svg PUBLIC "-//W3C//DTD SVG 1.1//EN" "http://www.w3.org/Graphics/SVG/1.1/DTD/svg11.dtd">
<svg xmlns="http://www.w3.org/2000/svg" xmlns:xlink="http://www.w3.org/1999/xlink" version="1.1" width="72.844" height="80.2712" xml:space="preserve">
<desc>Created with Fabric.js 1.6.0-rc.1</desc>
<defs></defs>
<g style="stroke: none; stroke-width: 1; stroke-dasharray: none; stroke-linecap: butt; stroke-linejoin: miter; stroke-miterlimit: 10; fill: none; fill-rule: nonzero; opacity: 1;" transform="translate(10 9.999999999999993) rotate(8.73) scale(0.44 0.44)" >
  <polygon points="110.7,110.4 35.67,129.98 112.52,129.98 " style="stroke: none; stroke-width: 1; stroke-dasharray: none; stroke-linecap: butt; stroke-linejoin: miter; stroke-miterlimit: 10; fill: #FFEB97; fill-rule: nonzero; opacity: 1;" transform="  matrix(1 0 0 1 0 0) "/>
  <path d="M 26.753 94.452 l 80.562 -20.607 l -2.212 -23.867 H 92.489 v 5.554 c 3.022 0.935 5.225 3.754 5.225 7.079 c 0 4.086 -3.324 7.41 -7.41 7.41 c -4.084 0 -7.406 -3.324 -7.406 -7.41 c 0 -2.689 1.443 -5.04 3.592 -6.338 v -6.294 h -39 v 5.708 c 2.798 1.059 4.797 3.759 4.797 6.924 c 0 4.086 -3.323 7.41 -7.408 7.41 c -4.086 0 -7.41 -3.324 -7.41 -7.41 c 0 -2.864 1.637 -5.348 4.022 -6.581 v -6.052 H 30.875 L 26.753 94.452 z" style="stroke: none; stroke-width: 1; stroke-dasharray: none; stroke-linecap: butt; stroke-linejoin: miter; stroke-miterlimit: 10; fill: #FFEB97; fill-rule: nonzero; opacity: 1;" transform=" matrix(1 0 0 1 0 0) " stroke-linecap="round" />
  <polygon points="110.14,104.35 107.88,79.89 26.16,100.8 23.75,126.89 " style="stroke: none; stroke-width: 1; stroke-dasharray: none; stroke-linecap: butt; stroke-linejoin: miter; stroke-miterlimit: 10; fill: #FFFFFF; fill-rule: nonzero; opacity: 1;" transform="  matrix(1 0 0 1 0 0) "/>
  <path d="M 110.574 43.977 H 92.489 V 25.449 C 92.489 11.416 81.049 0 66.989 0 c -14.061 0 -25.5 11.416 -25.5 25.449 v 18.528 H 25.407 l -8.527 92 h 102.219 L 110.574 43.977 z M 41.489 56.029 c -2.385 1.233 -4.022 3.717 -4.022 6.581 c 0 4.086 3.324 7.41 7.41 7.41 c 4.085 0 7.408 -3.324 7.408 -7.41 c 0 -3.165 -1.999 -5.865 -4.797 -6.924 v -5.708 h 39 v 6.294 c -2.148 1.298 -3.592 3.65 -3.592 6.338 c 0 4.086 3.322 7.41 7.406 7.41 c 4.086 0 7.41 -3.324 7.41 -7.41 c 0 -3.325 -2.202 -6.145 -5.225 -7.079 v -5.554 h 12.614 l 2.212 23.867 L 26.753 94.452 l 4.122 -44.475 h 10.613 V 56.029 z M 26.165 100.795 l 81.71 -20.901 l 2.266 24.455 l -86.393 22.537 L 26.165 100.795 z M 110.702 110.403 l 1.813 19.574 h -76.85 L 110.702 110.403 z M 47.489 25.449 C 47.489 14.725 56.237 6 66.989 6 s 19.5 8.725 19.5 19.449 v 18.528 h -39 V 25.449 z" style="stroke: none; stroke-width: 1; stroke-dasharray: none; stroke-linecap: butt; stroke-linejoin: miter; stroke-miterlimit: 10; fill: #586065; fill-rule: nonzero; opacity: 1;" transform=" matrix(1 0 0 1 0 0) " stroke-linecap="round" />
</g>
</svg>